<svg xmlns="http://www.w3.org/2000/svg" xmlns:xlink="http://www.w3.org/1999/xlink" width="389" height="388" viewBox="0 0 389 388"><defs><clipPath id="a"><rect width="36.768" height="62.56" fill="none"/></clipPath></defs><g transform="translate(-279 -177)"><ellipse cx="194.5" cy="194" rx="194.5" ry="194" transform="translate(279 177)" fill="#fff"/><g transform="translate(95.134 72.042)"><path d="M93.837,3,1,72.78l1.474,1.826a12.56,12.56,0,0,0,17.185,1.93L93.837,19.747l74.179,56.789a12.56,12.56,0,0,0,17.185-1.93l1.474-1.826L159.722,52.522V16.956H132.769V32.264Zm0,27.912L21.963,83.945v66.989H165.711V92.319ZM75.869,89.528h35.937v50.242H75.869Z" transform="translate(298.98 237.019)" fill="#ecc604"/><path d="M45.624,6A35.613,35.613,0,0,0,18.682,64.914L45.624,95.061,72.567,64.914A35.613,35.613,0,0,0,45.624,6Zm0,16.193,21.051,17a4.508,4.508,0,0,1-4.858,1.619v17H29.432v-17A4.508,4.508,0,0,1,24.574,39.2ZM40.767,41.624V54.579h9.716V41.624Z" transform="translate(347.193 155.958)" fill="#00b518"/><line x2="181.52" transform="translate(299.98 408.998)" fill="none" stroke="#707070" stroke-width="2"/><path d="M44.094,10.951a5.951,5.951,0,1,0-11.9,0v.85c0,3.287,2.55,6.8,5.951,6.8s5.951-3.514,5.951-6.8Zm8.853,37.26a6.8,6.8,0,0,0,1.2-5.34l-2.885-14.76a3.4,3.4,0,0,0-2.256-2.572A35.11,35.11,0,0,0,38.146,23.7,35.053,35.053,0,0,0,27.29,25.539a3.4,3.4,0,0,0-2.26,2.572L22.14,42.869a6.8,6.8,0,0,0,1.2,5.346l4.512,6.116-.68,36.49-.843.422a1.7,1.7,0,0,0-.94,1.52v2.35h6.973a1.7,1.7,0,0,0,1.692-1.522L37.3,62.808H39L42.237,93.59a1.7,1.7,0,0,0,1.69,1.522h6.968v-2.35a1.7,1.7,0,0,0-.94-1.52l-.838-.418-.68-36.494Z" transform="translate(423.564 313.886)" fill="#800404"/><path d="M32.421,4A12.455,12.455,0,0,0,21.853,9.284l2.114,7.4H41.932a11.671,11.671,0,0,0,3.171-7.4L38.762,8.227S36.648,4,32.421,4ZM51.444,27.25S49.33,18.8,41.932,18.8L23.966,19.853c-8.443,2.114-8.455,12.682-8.455,12.682S6,36.762,6,47.33c0,4.576,4.227,10.568,8.455,12.682h40.16A15.852,15.852,0,0,0,60.955,47.33C60.955,33.591,51.444,27.25,51.444,27.25ZM35.063,50.344v2.27H31.892v-2.2a10.747,10.747,0,0,1-5.017-1.865l1.432-3.581a8.339,8.339,0,0,0,4.927,1.833c2.062,0,3.008-1,3.008-2.55,0-1.374-1.261-2-3.122-3.063-2.321-1.318-5.987-2.436-5.987-6.446,0-2.889,2.116-4.678,4.759-5.211V27.25h3.171v2.189a8.134,8.134,0,0,1,4.158,1.5l-1.059,3.78a6.488,6.488,0,0,0-4.582-1.576c-1.661,0-2.808.573-2.808,1.462,0,1.23,1.289,1.861,3.466,3.035,3.465,1.861,5.843,3.608,5.843,6.818C40.08,47.938,38.185,49.822,35.063,50.344Z" transform="translate(466.177 368.602)" fill="#2f9f48"/><g transform="translate(229.866 339.018)"><path d="M926.063,689.553H898.9l5.83-13.653h16.783Z" transform="translate(-888.087 -615.813)" fill="#1d252e" stroke="#1d252e" stroke-miterlimit="10" stroke-width="4"/><path d="M506.733,689.553H479.57L485.4,675.9h16.781Z" transform="translate(-377.157 -615.813)" fill="#1d252e" stroke="#1d252e" stroke-miterlimit="10" stroke-width="4"/><path d="M890.81,707.511a10.4,10.4,0,0,0,10.4,10.4c.577,0,3.03-.046,3.58-.138a10.058,10.058,0,0,0,8.3-10.267,10.4,10.4,0,0,0-8.3-10.188,30.236,30.236,0,0,0-3.58-.218,10.4,10.4,0,0,0-10.4,10.411Z" transform="translate(-873.348 -632.382)" fill="#1d252e" stroke="#1d252e" stroke-miterlimit="10" stroke-width="4"/><rect width="2.925" height="20.8" transform="translate(27.788 85.55) rotate(-179.55)" fill="#1d252e" stroke="#1d252e" stroke-miterlimit="10" stroke-width="4"/><ellipse cx="10.4" cy="10.4" rx="10.4" ry="10.4" transform="translate(14.538 64.729)" fill="#fff" stroke="#1d252e" stroke-miterlimit="10" stroke-width="4"/><ellipse cx="4.67" cy="4.67" rx="4.67" ry="4.67" transform="translate(20.267 70.459)" fill="#1d252e"/><path d="M474.73,707.511a10.4,10.4,0,0,0,10.4,10.4c.577,0,3.03-.046,3.58-.138a10.058,10.058,0,0,0,8.3-10.267,10.4,10.4,0,0,0-8.3-10.188,30.234,30.234,0,0,0-3.58-.218,10.4,10.4,0,0,0-10.4,10.411Z" transform="translate(-366.378 -632.382)" fill="#1d252e" stroke="#1d252e" stroke-miterlimit="10" stroke-width="4"/><rect width="2.925" height="20.8" transform="translate(118.677 85.545) rotate(-179.55)" fill="#1d252e" stroke="#1d252e" stroke-miterlimit="10" stroke-width="4"/><ellipse cx="10.4" cy="10.4" rx="10.4" ry="10.4" transform="translate(105.427 64.729)" fill="#fff" stroke="#1d252e" stroke-miterlimit="10" stroke-width="4"/><ellipse cx="4.67" cy="4.67" rx="4.67" ry="4.67" transform="translate(111.157 70.459)" fill="#1d252e"/><path d="M756.55,707.511a10.4,10.4,0,0,0,10.4,10.4c.577,0,3.03-.046,3.58-.138a10.058,10.058,0,0,0,8.3-10.267,10.4,10.4,0,0,0-8.3-10.188,30.236,30.236,0,0,0-3.58-.218,10.4,10.4,0,0,0-10.4,10.411Z" transform="translate(-709.759 -632.382)" fill="#1d252e" stroke="#1d252e" stroke-miterlimit="10" stroke-width="4"/><rect width="2.925" height="20.8" transform="translate(57.115 85.549) rotate(-179.55)" fill="#1d252e" stroke="#1d252e" stroke-miterlimit="10" stroke-width="4"/><ellipse cx="10.4" cy="10.4" rx="10.4" ry="10.4" transform="translate(43.866 64.729)" fill="#1d252e" stroke="#1d252e" stroke-miterlimit="10" stroke-width="4"/><path d="M339,707.511a10.4,10.4,0,0,0,10.4,10.4c.577,0,3.03-.046,3.58-.138a10.058,10.058,0,0,0,8.3-10.267,10.4,10.4,0,0,0-8.3-10.188,30.207,30.207,0,0,0-3.58-.218A10.4,10.4,0,0,0,339,707.511Z" transform="translate(-200.999 -632.382)" fill="#1d252e" stroke="#1d252e" stroke-miterlimit="10" stroke-width="4"/><rect width="2.925" height="20.8" transform="translate(148.321 85.544) rotate(-179.55)" fill="#1d252e" stroke="#1d252e" stroke-miterlimit="10" stroke-width="4"/><ellipse cx="10.4" cy="10.4" rx="10.4" ry="10.4" transform="translate(135.07 64.729)" fill="#1d252e" stroke="#1d252e" stroke-miterlimit="10" stroke-width="4"/><path d="M847.076,484.32h-9.55A3.526,3.526,0,0,0,834,487.846v1.575h13.076Z" transform="translate(-794.923 -466.082)" fill="#9ed4c0"/><path d="M834.91,529.2v19.926h11.765c.874-5.2,3.714-9.742,11.958-9.742s11.09,4.539,11.955,9.742H885.7V499.41H858.222a3.185,3.185,0,0,0-3.141,2.65l-3,17.486-14.055,5.57A4.236,4.236,0,0,0,834.91,529.2Z" transform="translate(-833.745 -477.876)" fill="#9ed4c0"/><rect width="8.974" height="49.541" transform="translate(42.981 21.534)" fill="#1d252e"/><path d="M920.248,509.93H907.228l-3.108,17.434h15.911Z" transform="translate(-883.411 -486.098)" fill="#1d252e"/><line x2="7.056" transform="translate(2.37 54.099)" fill="none" stroke="#1d252e" stroke-linecap="round" stroke-linejoin="round" stroke-width="4"/><line x2="7.056" transform="translate(2.37 57.223)" fill="none" stroke="#1d252e" stroke-linecap="round" stroke-linejoin="round" stroke-width="4"/><line x2="7.056" transform="translate(2.37 60.349)" fill="none" stroke="#1d252e" stroke-linecap="round" stroke-linejoin="round" stroke-width="4"/><path d="M1037.223,690.752h-7.233v2.674h7.233a.928.928,0,0,0,.928-.928v-.819a.928.928,0,0,0-.928-.928Z" transform="translate(-1028.81 -627.419)" fill="#1d252e"/><path d="M283.32,400.83v71.249h56.111c.874-5.2,3.713-9.742,11.958-9.742a12.949,12.949,0,0,1,7.645,2.027c2.6,1.817,3.8,4.657,4.3,7.715h44.055V400.83Z" transform="translate(-234.944 -400.83)" fill="#9ed4c0"/><rect width="36.768" height="62.56" transform="translate(130.839 8.696)" fill="#1d252e"/><rect width="45.644" height="4.631" transform="translate(128.401 71.256)" fill="#fff"/><path d="M276,731.661h43.243V727.03h-1.6" transform="translate(-145.199 -655.774)" fill="none" stroke="#1d252e" stroke-linecap="round" stroke-linejoin="round" stroke-width="4"/><path d="M594.42,727a28.046,28.046,0,0,1,.336,4.607v.024h67.309V727Z" transform="translate(-557.577 -655.751)" fill="#fff"/><path d="M594.42,736.4c.068.854.092,1.713.092,2.56v.024h67.315v-1.112" transform="translate(-557.339 -663.097)" fill="none" stroke="#1d252e" stroke-linecap="round" stroke-linejoin="round" stroke-width="4"/><path d="M1013.56,727v4.631h12.591v-.024a28.015,28.015,0,0,1,.339-4.607Z" transform="translate(-1013.56 -655.751)" fill="#fff"/><path d="M1016.174,727h-1.164v4.631H1027.6v-.024q0-.655.022-1.311" transform="translate(-1015.01 -655.751)" fill="none" stroke="#1d252e" stroke-linecap="round" stroke-linejoin="round" stroke-width="4"/><path d="M914.529,606h-7.4v.747a.834.834,0,0,0,.834.834h5.73a.834.834,0,0,0,.834-.834Z" transform="translate(-878.35 -561.182)" fill="#1d252e"/><path d="M994.57,510.227v2.6a2.567,2.567,0,0,0,2.567,2.564h.775a1.067,1.067,0,0,0,.393-.072,1.114,1.114,0,0,0,.727-1.049v-5.489a1.121,1.121,0,0,0-1.121-1.123h-.778A2.567,2.567,0,0,0,994.57,510.227Z" transform="translate(-981.955 -484.324)" fill="#9ed4c0"/><path d="M994.57,509.521v4.533a2.258,2.258,0,0,0,.59,1.529,1.114,1.114,0,0,0,.727-1.049v-5.494a1.125,1.125,0,0,0-.725-1.051,2.255,2.255,0,0,0-.592,1.531Z" transform="translate(-978.809 -484.582)" fill="#1d252e"/><path d="M970,503.54h-6.717l-2.578,1.8" transform="translate(-945.53 -481.104)" fill="none" stroke="#9ed4c0" stroke-miterlimit="10" stroke-width="5.39"/><line x1="120.491" transform="translate(51.955 4.059)" fill="#9ed4c0" stroke="#1d252e" stroke-miterlimit="10" stroke-width="4"/><line y2="55.539" transform="translate(126.227 4.059)" fill="#9ed4c0" stroke="#1d252e" stroke-miterlimit="10" stroke-width="4"/><g transform="translate(132.182 8.696)" clip-path="url(#a)"><rect width="12.643" height="12.643" transform="translate(19.297 49.916)" fill="#9ed4c0"/><rect width="12.643" height="12.643" transform="translate(9.959 49.916)" fill="#9ed4c0"/><line y2="12.643" transform="translate(22.602 49.916)" fill="none" stroke="#1d252e" stroke-miterlimit="10" stroke-width="1.57"/><rect width="10.887" height="10.887" transform="translate(5.793 51.675)" fill="#9ed4c0"/><rect width="10.887" height="10.887" transform="translate(-2.248 51.675)" fill="#9ed4c0"/><line y2="10.107" transform="translate(8.639 52.452)" fill="none" stroke="#1d252e" stroke-miterlimit="10" stroke-width="1.35"/><rect width="9.255" height="1.551" transform="translate(7.943 50.901)" fill="#9ed4c0" stroke="#1d252e" stroke-miterlimit="10" stroke-width="1.35"/><rect width="10.922" height="1.551" transform="translate(-2.888 50.901)" fill="#9ed4c0" stroke="#1d252e" stroke-miterlimit="10" stroke-width="1.35"/><rect width="10.887" height="10.887" transform="translate(5.793 39.927)" fill="#9ed4c0"/><rect width="10.887" height="10.887" transform="translate(-2.248 39.927)" fill="#9ed4c0"/><line y2="10.107" transform="translate(8.639 40.707)" fill="none" stroke="#1d252e" stroke-miterlimit="10" stroke-width="1.35"/><rect width="9.255" height="1.551" transform="translate(7.943 39.156)" fill="#9ed4c0" stroke="#1d252e" stroke-miterlimit="10" stroke-width="1.35"/><rect width="10.922" height="1.551" transform="translate(-2.888 39.156)" fill="#9ed4c0" stroke="#1d252e" stroke-miterlimit="10" stroke-width="1.35"/><rect width="10.887" height="10.887" transform="translate(5.793 28.179)" fill="#9ed4c0"/><rect width="10.887" height="10.887" transform="translate(-2.248 28.179)" fill="#9ed4c0"/><line y2="10.107" transform="translate(8.639 28.959)" fill="none" stroke="#1d252e" stroke-miterlimit="10" stroke-width="1.35"/><rect width="9.255" height="1.551" transform="translate(7.943 27.408)" fill="#9ed4c0" stroke="#1d252e" stroke-miterlimit="10" stroke-width="1.35"/><rect width="10.922" height="1.551" transform="translate(-2.888 27.408)" fill="#9ed4c0" stroke="#1d252e" stroke-miterlimit="10" stroke-width="1.35"/><rect width="1.745" height="4.882" transform="translate(27.152 49.916)" fill="#1d252e"/></g><g transform="translate(174.044 10.001)"><path d="M204.614,533.16l-2.392,1.934-9.107-1.14c.148-.572-4.855-1.883-5.386.838s4.576,2.213,5.164,2.3c.34.043,9.02,2.044,11.465,1.635l4.645-3A5.419,5.419,0,0,1,204.614,533.16Z" transform="translate(-187.679 -513.237)" fill="#fff"/><path d="M215.878,537.495l-2.3,1.168c-2.445.416-11.125-1.592-11.465-1.635-.588-.074-5.7.434-5.164-2.3s5.535-1.411,5.386-.838l9.107,1.14.879-.56" transform="translate(-196.91 -513.185)" fill="none" stroke="#1d252e" stroke-linecap="round" stroke-linejoin="round" stroke-width="2"/><path d="M149.209,483.708l-1.72-.7-.026-3.618.728-.7.406-1.083.859-.005.506-.756-.146-.874-.243-.281.5-1.449-5.616-.979-.348.153-.894,1.4-.565,1.623.212,1.454.565.935.869.7.353,0-.023,3.34-2.44-.342,2.006,2.775,4.845.593Z" transform="translate(-117.128 -468.664)" fill="#fff"/><path d="M144.539,769.893v1.922c0,.434.562,4.748.176,4.855s-11.34,1.063-9.965,0,5.662-4.142,5.662-5.006a5.859,5.859,0,0,0,.1-2.044Z" transform="translate(-109.969 -689.297)" fill="#fff"/><path d="M143.723,490.156c-.424-.161-.767-.286-1.048-.378q.071-1.62-.026-3.618a3.045,3.045,0,0,0,.728-.7,4.41,4.41,0,0,0,.4-1.078c.92.066,1.375-.273,1.37-1.022s-.427-1.076-1.265-.989" transform="translate(-112.313 -475.436)" fill="none" stroke="#1d252e" stroke-linecap="round" stroke-linejoin="round" stroke-width="2"/><path d="M164.026,476.93a4.012,4.012,0,0,0-1,2.645,2.987,2.987,0,0,0,2.09,2.762l-.128,3.248-1.227-.184" transform="translate(-137.492 -471.396)" fill="none" stroke="#1d252e" stroke-linecap="round" stroke-linejoin="round" stroke-width="2"/><path d="M203.191,763.551l-.256,5.282-.046,2.7-9.751-.158-.279-.289.118-.222a35.628,35.628,0,0,0,6.434-5.366l.271-2.231Z" transform="translate(-183.188 -684.57)" fill="#fff"/><path d="M152.28,606.61l.337,20.82.414,20.874a32.452,32.452,0,0,1-5.11.6,3.744,3.744,0,0,1-2.4-.6l-.455-19.857-.71-14.054a7.077,7.077,0,0,1-1.313-.161,7.889,7.889,0,0,1-1.278-.488L140.127,628l-2.172,18.8a28.051,28.051,0,0,1-3.981.358,12.323,12.323,0,0,1-2.974-.47l2.016-19.724,3.511-20.248Z" transform="translate(-117.222 -567.94)" fill="#1d252e"/><path d="M144.707,480.292a1.883,1.883,0,0,0-1.147-.23" transform="translate(-112.107 -473.718)" fill="none" stroke="#1d252e" stroke-linecap="round" stroke-linejoin="round" stroke-width="2"/><path d="M146.738,461.467a3.913,3.913,0,0,0-1.554-.4c-.041-.2-.092-.417-.153-.662q-1.428,1.505-4.152-.255c-2.721-1.773.71-6.421,3.419-4.364q1.464,1.14,1.615,1.855,1.175.161,1.4.843Q147.78,459.4,146.738,461.467Z" transform="translate(-113.915 -455.274)" fill="#1d252e"/><path d="M143.633,510.094a3.69,3.69,0,0,1-3.869,1.278c-2.044-.611-2.624-1.25-2.882-2.33-1.257-.511-3.812.381-4.776,1.16a31.061,31.061,0,0,0-4.855,5.126l4.2,3.283c-.636,2.491-.358.524-.838,5.89q-.176,3.557-.692,9.12a31.778,31.778,0,0,0,8.879,1.911,27.085,27.085,0,0,0,8.366-1.87s.45-6.868.731-12.822c.212-4.438.45-7.208.22-7.41A9.322,9.322,0,0,0,143.633,510.094Z" transform="translate(-111.447 -495.191)" fill="#9dd5c0"/><path d="M144.539,770.69v1.921c0,.434.562,4.748.176,4.855s-11.34,1.063-9.965,0,5.662-4.142,5.662-5.005" transform="translate(-109.969 -690.094)" fill="none" stroke="#1d252e" stroke-linecap="round" stroke-linejoin="round" stroke-width="2"/><path d="M203.193,764.37a46.514,46.514,0,0,0-.255,5.282,19.813,19.813,0,0,1-.046,2.7l-9.751-.158a.281.281,0,0,1-.161-.511q6.424-4.691,6.434-5.366" transform="translate(-183.19 -685.389)" fill="none" stroke="#1d252e" stroke-linecap="round" stroke-linejoin="round" stroke-width="2"/><path d="M0,15.06H15.06V0H1.119A1.117,1.117,0,0,0,0,1.117V15.06Z" transform="matrix(-1, -0.022, 0.022, -1, 27.553, 33.113)" fill="#9ed4c0"/><path d="M0,15.06H15.06V1.117A1.117,1.117,0,0,0,13.944,0H0Z" transform="matrix(-1, -0.022, 0.022, -1, 16.429, 32.864)" fill="#9ed4c0"/><line x1="0.289" y2="12.96" transform="translate(16.461 18.89)" fill="none" stroke="#1d252e" stroke-miterlimit="10" stroke-width="1.59"/><line x1="0.189" y2="8.504" transform="translate(27.664 19.135)" fill="none" stroke="#1d252e" stroke-miterlimit="10" stroke-width="1.59"/><rect width="12.804" height="2.146" transform="matrix(-1, -0.022, 0.022, -1, 28.58, 19.151)" fill="#9ed4c0" stroke="#1d252e" stroke-miterlimit="10" stroke-width="1.59"/><rect width="15.109" height="2.146" transform="matrix(-1, -0.022, 0.022, -1, 15.906, 18.868)" fill="#9ed4c0" stroke="#1d252e" stroke-miterlimit="10" stroke-width="1.59"/><path d="M150.054,556.351l-1.071,1.048-9.143.792c.026-.59-5.141-.825-5.09,1.947s4.937,1.206,5.53,1.155c.34-.028,9.247.117,11.552-.8l3.051-2.555C154.387,556.586,152.76,554.031,150.054,556.351Z" transform="translate(-120.032 -529.826)" fill="#fff"/><path d="M156.059,561.99l-2.647,2.108c-2.3.917-11.212.767-11.552.8-.593.051-5.481,1.62-5.529-1.155s5.11-2.537,5.09-1.947l9.143-.792.744-.733" transform="translate(-121.612 -533.441)" fill="none" stroke="#1d252e" stroke-linecap="round" stroke-linejoin="round" stroke-width="2"/></g></g></g></g></svg>