<?xml version="1.0" encoding="UTF-8"?>
<svg id="Layer_2" data-name="Layer 2" xmlns="http://www.w3.org/2000/svg" xmlns:xlink="http://www.w3.org/1999/xlink" viewBox="0 0 77.47 77.28">
  <defs>
    <style>
      .cls-1 {
        stroke-width: 1.23px;
      }

      .cls-1, .cls-2, .cls-3, .cls-4, .cls-5, .cls-6, .cls-7, .cls-8, .cls-9, .cls-10, .cls-11, .cls-12, .cls-13 {
        stroke: #006838;
      }

      .cls-1, .cls-2, .cls-4, .cls-5, .cls-6, .cls-7, .cls-11, .cls-12, .cls-13 {
        fill: none;
      }

      .cls-1, .cls-4, .cls-5, .cls-14, .cls-15, .cls-8, .cls-9, .cls-10, .cls-11, .cls-16, .cls-12, .cls-13 {
        stroke-miterlimit: 10;
      }

      .cls-2, .cls-6 {
        stroke-width: .46px;
      }

      .cls-2, .cls-7 {
        stroke-linecap: round;
        stroke-linejoin: round;
      }

      .cls-3 {
        stroke-miterlimit: 10;
        stroke-width: .36px;
      }

      .cls-3, .cls-17, .cls-14, .cls-9, .cls-16 {
        fill: #fff;
      }

      .cls-4 {
        stroke-width: .36px;
      }

      .cls-5, .cls-14, .cls-16 {
        stroke-width: .31px;
      }

      .cls-14 {
        stroke: #414042;
      }

      .cls-15, .cls-7, .cls-8, .cls-9, .cls-12 {
        stroke-width: .92px;
      }

      .cls-15, .cls-8, .cls-10, .cls-18, .cls-19 {
        fill: #006838;
      }

      .cls-15, .cls-16, .cls-18 {
        stroke: #1d252f;
      }

      .cls-11 {
        stroke-width: .36px;
      }

      .cls-18 {
        stroke-miterlimit: 10;
        stroke-width: .92px;
      }

      .cls-20 {
        clip-path: url(#clippath);
      }
    </style>
    <clipPath id="clippath">
      <rect class="cls-13" x="35.35" y="38.7" width="8.42" height="14.33"/>
    </clipPath>
  </defs>
  <g id="logo_1" data-name="logo 1">
    <g>
      <g>
        <ellipse class="cls-17" cx="38.74" cy="38.64" rx="38.74" ry="38.64"/>
        <g>
          <g>
            <line class="cls-6" x1="21.13" y1="52.73" x2="62.71" y2="52.73"/>
            <path class="cls-19" d="M64.07,36.62c.01-.75-.59-1.37-1.34-1.39-.75-.01-1.37.59-1.39,1.34,0,.02,0,.03,0,.05v.19c0,.75.58,1.56,1.36,1.56s1.36-.8,1.36-1.56v-.19ZM66.1,45.15c.26-.35.36-.79.27-1.22l-.66-3.38c-.05-.28-.25-.5-.52-.59-.8-.27-1.64-.41-2.49-.42-.85,0-1.69.15-2.49.42-.27.09-.46.31-.52.59l-.66,3.38c-.08.43.02.87.27,1.22l1.03,1.4-.16,8.36-.19.1c-.13.07-.22.2-.22.35v.54h1.6c.2,0,.37-.15.39-.35l.74-7.05h.39l.74,7.05c.02.2.19.35.39.35h1.6v-.54c0-.15-.08-.28-.22-.35l-.19-.1-.16-8.36,1.03-1.4Z"/>
            <path class="cls-19" d="M49.51,48.57c-.96-.03-1.87.43-2.42,1.21l.48,1.69h4.11c.44-.46.69-1.06.73-1.69l-1.45-.24s-.48-.97-1.45-.97ZM53.87,53.89s-.48-1.94-2.18-1.94l-4.11.24c-1.93.48-1.94,2.9-1.94,2.9,0,0-2.18.97-2.18,3.39,0,1.05.97,2.42,1.94,2.9h9.2c.91-.69,1.45-1.76,1.45-2.9,0-3.15-2.18-4.6-2.18-4.6ZM50.12,59.18v.52h-.73v-.5c-.41-.04-.81-.19-1.15-.43l.33-.82c.32.26.72.41,1.13.42.47,0,.69-.23.69-.58,0-.31-.29-.46-.72-.7-.53-.3-1.37-.56-1.37-1.48,0-.66.48-1.07,1.09-1.19v-.52h.73v.5c.34.02.67.14.95.34l-.24.87c-.29-.25-.67-.38-1.05-.36-.38,0-.64.13-.64.33,0,.28.3.43.79.7.79.43,1.34.83,1.34,1.56,0,.8-.43,1.23-1.15,1.35Z"/>
            <g>
              <path class="cls-10" d="M13.77,53.59h-6.22l1.34-3.13h3.84l1.04,3.13Z"/>
              <path class="cls-15" d="M34.75,53.59h-6.22l1.34-3.13h3.84l1.04,3.13Z"/>
              <path class="cls-8" d="M9.07,53.91c0,1.32,1.07,2.38,2.38,2.38h0c.13,0,.69-.01.82-.03,1.13-.2,1.94-1.2,1.9-2.35,0-1.13-.79-2.11-1.9-2.33-.27-.03-.55-.05-.82-.05-1.32,0-2.38,1.07-2.38,2.38h0Z"/>
              <rect class="cls-18" x="8.74" y="53.58" width="4.76" height=".67" transform="translate(-42.88 64.61) rotate(-89.55)"/>
              <circle class="cls-9" cx="10.78" cy="53.91" r="2.38"/>
              <circle class="cls-19" cx="10.78" cy="53.91" r="1.07"/>
              <path class="cls-8" d="M29.89,53.91c0,1.32,1.07,2.38,2.38,2.38h0c.13,0,.69-.01.82-.03,1.13-.2,1.94-1.2,1.9-2.35,0-1.13-.79-2.11-1.9-2.33-.27-.03-.55-.05-.82-.05-1.32,0-2.38,1.07-2.38,2.38h0Z"/>
              <rect class="cls-18" x="29.56" y="53.58" width="4.76" height=".67" transform="translate(-22.22 85.43) rotate(-89.55)"/>
              <circle class="cls-9" cx="31.6" cy="53.91" r="2.38"/>
              <circle class="cls-19" cx="31.6" cy="53.91" r="1.07"/>
              <path class="cls-8" d="M15.79,53.91c0,1.32,1.07,2.38,2.38,2.38h0c.13,0,.69-.01.82-.03,1.13-.2,1.94-1.2,1.9-2.35,0-1.13-.79-2.11-1.9-2.33-.27-.03-.55-.05-.82-.05-1.32,0-2.38,1.07-2.38,2.38h0Z"/>
              <rect class="cls-18" x="15.46" y="53.58" width="4.76" height=".67" transform="translate(-36.22 71.33) rotate(-89.55)"/>
              <circle class="cls-8" cx="17.5" cy="53.91" r="2.38"/>
              <path class="cls-8" d="M36.68,53.91c0,1.32,1.07,2.38,2.38,2.38h0c.13,0,.69-.01.82-.03,1.13-.2,1.94-1.2,1.9-2.35,0-1.13-.79-2.11-1.9-2.33-.27-.03-.55-.05-.82-.05-1.32,0-2.38,1.07-2.38,2.38h0Z"/>
              <rect class="cls-18" x="36.35" y="53.58" width="4.76" height=".67" transform="translate(-15.49 92.22) rotate(-89.55)"/>
              <circle class="cls-8" cx="38.39" cy="53.91" r="2.38"/>
              <path class="cls-17" d="M17.02,40.88h-2.19c-.45,0-.81.36-.81.81h0v.36h2.99v-1.17Z"/>
              <path class="cls-17" d="M5.34,48.46v4.56h2.69c.2-1.19.85-2.23,2.74-2.23s2.54,1.04,2.74,2.23h3.46v-11.39h-6.29c-.36,0-.66.26-.72.61l-.69,4.01-3.22,1.28c-.42.12-.71.5-.71.94Z"/>
              <rect class="cls-19" x="14.92" y="41.64" width="2.06" height="11.35"/>
              <path class="cls-19" d="M13.51,42.16h-2.98l-.71,3.99h3.64l.05-3.99Z"/>
              <line class="cls-7" x1="5.62" y1="49.1" x2="7.23" y2="49.1"/>
              <line class="cls-7" x1="5.62" y1="49.81" x2="7.23" y2="49.81"/>
              <line class="cls-7" x1="5.62" y1="50.53" x2="7.23" y2="50.53"/>
              <path class="cls-19" d="M7,51.21h-1.66v.61h1.66c.12,0,.21-.1.21-.21v-.19c0-.12-.1-.21-.21-.21h0Z"/>
              <path class="cls-17" d="M16.15,36.71v16.32h12.85c.2-1.19.85-2.23,2.74-2.23.62-.03,1.23.13,1.75.46.6.42.87,1.07.98,1.77h10.09v-16.32h-28.42Z"/>
              <rect class="cls-19" x="35.04" y="38.7" width="8.42" height="14.33"/>
              <rect class="cls-17" x="34.48" y="53.03" width="10.45" height="1.06"/>
              <path class="cls-7" d="M35.03,54.09h9.9v-1.06h-.37"/>
              <path class="cls-17" d="M13.51,53.02c.05.35.08.7.08,1.06h0s15.42,0,15.42,0v-1.06h-15.49Z"/>
              <path class="cls-7" d="M13.57,53.49c.02.2.02.39.02.59h0s15.42,0,15.42,0v-.25"/>
              <path class="cls-17" d="M5.07,53.02v1.06h2.88c0-.36.02-.71.08-1.06h-2.96Z"/>
              <path class="cls-7" d="M5.34,53.02h-.27v1.06h2.88c0-.11,0-.21,0-.31"/>
              <path class="cls-19" d="M13.36,46.97h-1.69v.17c0,.11.09.19.19.19h1.31c.11,0,.19-.09.19-.19v-.17Z"/>
              <path class="cls-17" d="M7.96,42.64v.6c0,.32.26.59.59.59h.18s.06,0,.09-.02c.1-.04.17-.13.17-.24v-1.26c0-.14-.11-.26-.26-.26h-.18c-.32,0-.59.26-.59.59Z"/>
              <path class="cls-19" d="M8.68,42.42v1.04c0,.13.05.25.14.35.1-.04.17-.13.17-.24v-1.26c0-.11-.07-.2-.17-.24-.09.1-.14.22-.14.35h0Z"/>
              <path class="cls-1" d="M10.68,41.84h-1.54l-.59.41"/>
              <line class="cls-12" x1="44.57" y1="37.63" x2="16.97" y2="37.63"/>
              <line class="cls-12" x1="33.98" y1="37.63" x2="33.98" y2="50.36"/>
              <g>
                <g class="cls-20">
                  <g>
                    <rect class="cls-17" x="39.77" y="50.13" width="2.9" height="2.9"/>
                    <rect class="cls-17" x="37.63" y="50.13" width="2.9" height="2.9"/>
                    <line class="cls-4" x1="40.52" y1="50.13" x2="40.52" y2="53.03"/>
                    <rect class="cls-17" x="36.67" y="50.53" width="2.49" height="2.49"/>
                    <rect class="cls-17" x="34.83" y="50.53" width="2.49" height="2.49"/>
                    <line class="cls-5" x1="37.33" y1="50.71" x2="37.33" y2="53.03"/>
                    <rect class="cls-16" x="37.17" y="50.36" width="2.12" height=".36"/>
                    <rect class="cls-16" x="34.69" y="50.36" width="2.5" height=".36"/>
                    <rect class="cls-17" x="36.67" y="47.84" width="2.49" height="2.49"/>
                    <rect class="cls-17" x="34.83" y="47.84" width="2.49" height="2.49"/>
                    <line class="cls-5" x1="37.33" y1="48.02" x2="37.33" y2="50.34"/>
                    <rect class="cls-14" x="37.17" y="47.67" width="2.12" height=".36"/>
                    <rect class="cls-16" x="34.69" y="47.67" width="2.5" height=".36"/>
                    <rect class="cls-17" x="36.67" y="45.15" width="2.49" height="2.49"/>
                    <rect class="cls-17" x="34.83" y="45.15" width="2.49" height="2.49"/>
                    <line class="cls-5" x1="37.33" y1="45.33" x2="37.33" y2="47.64"/>
                    <rect class="cls-14" x="37.17" y="44.97" width="2.12" height=".36"/>
                    <rect class="cls-16" x="34.69" y="44.97" width="2.5" height=".36"/>
                    <rect class="cls-19" x="41.57" y="50.13" width=".4" height="1.12"/>
                  </g>
                </g>
                <rect class="cls-13" x="35.35" y="38.7" width="8.42" height="14.33"/>
              </g>
              <g>
                <path class="cls-17" d="M26.26,46.02l.55.44,2.09-.26c-.03-.13,1.11-.43,1.23.19s-1.05.51-1.18.53c-.08,0-2.07.47-2.63.37l-1.06-.69c.41-.02.79-.24,1.01-.59Z"/>
                <path class="cls-2" d="M25.8,47.02l.53.27c.56.1,2.55-.36,2.63-.37.13-.02,1.31.1,1.18-.53s-1.27-.32-1.23-.19l-2.09.26-.2-.13"/>
                <path class="cls-17" d="M22.8,44.9l.39-.16v-.83s-.16-.16-.16-.16l-.09-.25h-.2s-.12-.17-.12-.17l.03-.2.06-.06-.11-.33,1.29-.22.08.04.2.32.13.37-.05.33-.13.21-.2.16h-.08v.77s.56-.08.56-.08l-.46.64-1.11.14-.04-.5Z"/>
                <path class="cls-17" d="M22.23,59.91v.44c0,.1-.13,1.09-.04,1.11s2.6.24,2.28,0-1.3-.95-1.3-1.15c-.04-.15-.04-.31-.02-.47l-.92.06Z"/>
                <path class="cls-2" d="M22.95,44.83c.1-.04.18-.07.24-.09-.01-.25,0-.52,0-.83-.06-.04-.12-.1-.17-.16-.04-.08-.07-.16-.09-.25-.21.02-.31-.06-.31-.23s.1-.25.29-.23"/>
                <path class="cls-2" d="M24.07,42.72c.15.17.23.38.23.61,0,.29-.2.55-.48.63l.03.74.28-.04"/>
                <path class="cls-17" d="M25.56,59.54l.06,1.21v.62s2.24-.04,2.24-.04l.06-.07-.03-.05c-.54-.35-1.03-.76-1.47-1.23l-.06-.51-.8.07Z"/>
                <path class="cls-19" d="M22.11,50.31l-.08,4.77-.09,4.78c.39.08.78.12,1.17.14.19.02.39-.03.55-.14l.1-4.55.16-3.22c.1,0,.2-.02.3-.04.1-.03.2-.07.29-.11l.38,3.27.5,4.31c.3.05.61.08.91.08.23,0,.46-.04.68-.11l-.46-4.52-.8-4.64-3.61-.02Z"/>
                <path class="cls-2" d="M22.68,42.96c.08-.05.17-.06.26-.05"/>
                <path class="cls-19" d="M22.63,42.87c.11-.05.23-.09.36-.09,0-.05.02-.1.04-.15.22.23.54.21.95-.06.62-.41-.16-1.47-.78-1-.22.17-.35.32-.37.42-.18.02-.29.09-.32.19-.07.14-.03.37.13.68Z"/>
                <path class="cls-17" d="M22.77,44.87c.21.27.56.38.89.29.47-.14.6-.29.66-.53.29-.12.87.09,1.09.27.41.35.79.74,1.11,1.17l-.96.75c.15.57.08.12.19,1.35.03.54.08,1.24.16,2.09-.65.24-1.34.39-2.03.44-.66-.04-1.3-.18-1.92-.43,0,0-.1-1.57-.17-2.94-.05-1.02-.1-1.65-.05-1.7.26-.35.61-.62,1.03-.76Z"/>
                <path class="cls-2" d="M22.23,59.91v.44c0,.1-.13,1.09-.04,1.11s2.6.24,2.28,0-1.3-.95-1.3-1.15"/>
                <path class="cls-2" d="M25.56,59.54c.04.4.06.81.06,1.21-.01.21,0,.41.01.62l2.23-.04s.06-.03.06-.06c0-.02-.01-.04-.03-.05-.98-.72-1.47-1.13-1.47-1.23"/>
                <path class="cls-17" d="M23.76,45.59l3.45-.08.08,3.45-3.19.07c-.14,0-.26-.11-.26-.25,0,0,0,0,0,0l-.07-3.19Z"/>
                <path class="cls-17" d="M26.3,45.53l3.45-.08.07,3.19c0,.14-.11.26-.25.26l-3.19.07-.08-3.45Z"/>
                <line class="cls-11" x1="26.31" y1="45.78" x2="26.37" y2="48.75"/>
                <line class="cls-11" x1="23.76" y1="45.84" x2="23.81" y2="47.79"/>
                <rect class="cls-3" x="24.81" y="44.1" width=".49" height="2.93" transform="translate(70.06 19.51) rotate(88.74)"/>
                <rect class="cls-3" x="27.98" y="43.76" width=".49" height="3.46" transform="translate(73.09 16.27) rotate(88.74)"/>
                <path class="cls-17" d="M23.27,47.53l.25.24,2.09.18c0-.14,1.18-.19,1.17.45s-1.13.28-1.27.26c-.08,0-2.12.03-2.65-.18l-.7-.59c.11-.31.49-.89,1.11-.36Z"/>
                <path class="cls-2" d="M22.25,47.99l.61.48c.53.21,2.57.18,2.65.18.14.01,1.26.37,1.27-.26s-1.17-.58-1.17-.45l-2.09-.18-.17-.17"/>
              </g>
            </g>
          </g>
          <g>
            <polygon class="cls-19" points="40.72 19.16 26.2 33.99 18.38 36.92 40.72 9.7 48.47 19.05 48.47 14.93 56.85 12.31 56.85 29.31 63.59 37.13 55.21 33.85 40.72 19.16"/>
            <polygon class="cls-10" points="26.49 36.9 26.49 35.46 40.65 21 55.47 35.86 55.47 47.73 53.76 47.2 53.76 36.47 40.73 23.41 28.31 35.89 28.34 36.85 26.49 36.9"/>
            <polygon class="cls-17" points="53.7 28.56 50.04 25 50.04 16.1 53.7 14.88 53.7 28.56"/>
          </g>
        </g>
      </g>
      <path class="cls-19" d="M10.24,51.18c.39-.43,1.69-.32,1.92.08,0,.01.08.14,0,.28-.25.43-1.73.47-2,.07-.1-.14-.02-.32.08-.43Z"/>
    </g>
  </g>
</svg>